<svg xmlns="http://www.w3.org/2000/svg" viewBox="0 0 400 780" fill="none" aria-hidden="true">
  <path
    fill="#3A3A3A"
    d="M200 8
       C218 8 236 16 244 32
       C252 50 252 72 242 88
       C232 104 214 114 198 120
       C230 124 272 132 302 158
       C318 182 322 218 322 252
       C322 278 312 298 286 312
       C262 326 254 358 266 398
       C282 458 272 522 254 586
       C246 616 238 642 226 656
       Q200 674 174 656
       C162 642 154 616 146 586
       C128 522 118 458 134 398
       C146 358 138 326 114 312
       C88 298 78 278 78 252
       C78 218 82 182 98 158
       C128 132 170 124 202 120
       C186 114 168 104 158 88
       C148 72 148 50 156 32
       C164 16 182 8 200 8
       Z"
  />
</svg>
