<svg xmlns="http://www.w3.org/2000/svg" viewBox="0 0 400 780" fill="none" aria-hidden="true">
  <path
    fill="#3A3A3A"
    d="M200 16
       C168 16 126 28 114 56
       C102 84 106 110 120 128
       C132 144 152 156 170 164
       C168 176 158 190 142 204
       C92 218 66 252 58 290
       C52 322 56 352 68 378
       C80 398 96 414 108 432
       C104 454 98 478 92 502
       C86 532 82 562 80 592
       C78 622 74 652 70 680
       C66 706 60 728 56 746
       C52 762 70 774 96 772
       C122 774 142 764 152 742
       C158 718 160 686 162 648
       C164 606 166 562 170 518
       C174 474 180 432 186 392
       C190 358 194 332 196 312
       L200 300
       C206 332 210 358 214 392
       C220 432 226 474 230 518
       C234 562 236 606 238 648
       C240 686 242 718 248 742
       C258 764 278 774 304 772
       C332 770 354 762 350 746
       C346 728 340 702 338 674
       C342 644 344 610 342 576
       C340 548 338 520 340 492
       C342 472 346 450 352 420
       C360 386 364 344 356 298
       C346 252 310 222 258 204
       C242 190 232 176 230 164
       C248 156 268 144 280 128
       C294 110 298 84 286 56
       C274 28 234 16 200 16
       Z"
  />
</svg>
